<svg xmlns="http://www.w3.org/2000/svg" xmlns:xlink="http://www.w3.org/1999/xlink" width="2000" zoomAndPan="magnify" viewBox="0 0 1500 1499.999933" height="2000" preserveAspectRatio="xMidYMid meet" version="1.0"><defs><g/><clipPath id="2e8b05179f"><path d="M 437.035156 251 L 997 251 L 997 811 L 437.035156 811 Z M 437.035156 251 " clip-rule="nonzero"/></clipPath><clipPath id="070ac654ae"><path d="M 556 535 L 1063.285156 535 L 1063.285156 877.570312 L 556 877.570312 Z M 556 535 " clip-rule="nonzero"/></clipPath><clipPath id="a1518ee4b4"><rect x="0" width="1378" y="0" height="389"/></clipPath></defs><g clip-path="url(#2e8b05179f)"><path fill="#10192d" d="M 556.765625 564.21875 C 556.765625 522.675781 569.863281 484.191406 592.15625 452.667969 C 598.535156 443.667969 605.644531 435.21875 613.417969 427.449219 C 648.421875 392.445312 696.777344 370.792969 750.207031 370.792969 L 996.472656 370.792969 C 988.746094 360.96875 980.449219 351.621094 971.628906 342.796875 C 914.945312 286.128906 836.65625 251.066406 750.191406 251.066406 C 663.738281 251.066406 585.449219 286.128906 528.765625 342.796875 C 522.257812 349.308594 516.015625 356.121094 510.101562 363.1875 C 487.734375 389.878906 469.726562 420.335938 457.199219 453.492188 C 444.164062 487.914062 437.035156 525.242188 437.035156 564.21875 C 437.035156 603.199219 444.164062 640.527344 457.183594 674.960938 C 469.726562 708.121094 487.734375 738.578125 510.089844 765.269531 C 516.015625 772.335938 522.242188 779.132812 528.753906 785.65625 C 537.574219 794.480469 546.90625 802.761719 556.71875 810.488281 L 556.71875 775.171875 L 556.703125 765.269531 Z M 556.765625 564.21875 " fill-opacity="1" fill-rule="evenodd"/></g><path fill="#db2076" d="M 683.140625 565.675781 C 683.140625 582.121094 669.800781 595.457031 653.355469 595.457031 C 636.914062 595.457031 623.574219 582.121094 623.574219 565.675781 C 623.574219 549.21875 636.914062 535.894531 653.355469 535.894531 C 669.816406 535.894531 683.140625 549.230469 683.140625 565.675781 " fill-opacity="1" fill-rule="evenodd"/><path fill="#33a3e6" d="M 778.683594 565.675781 C 778.683594 582.121094 765.34375 595.457031 748.898438 595.457031 C 732.457031 595.457031 719.117188 582.121094 719.117188 565.675781 C 719.117188 549.21875 732.457031 535.894531 748.898438 535.894531 C 765.34375 535.894531 778.683594 549.230469 778.683594 565.675781 " fill-opacity="1" fill-rule="evenodd"/><path fill="#0f964b" d="M 874.210938 565.675781 C 874.210938 582.121094 860.871094 595.457031 844.429688 595.457031 C 827.984375 595.457031 814.644531 582.121094 814.644531 565.675781 C 814.644531 549.21875 827.984375 535.894531 844.429688 535.894531 C 860.871094 535.894531 874.210938 549.230469 874.210938 565.675781 " fill-opacity="1" fill-rule="evenodd"/><g clip-path="url(#070ac654ae)"><path fill="#f8af34" d="M 750.191406 757.660156 C 724.144531 757.660156 699.285156 752.515625 676.597656 743.183594 L 556.734375 775.171875 L 556.734375 810.488281 C 609.996094 852.394531 677.183594 877.390625 750.191406 877.390625 C 836.65625 877.390625 914.945312 842.339844 971.613281 785.65625 C 1028.28125 728.976562 1063.34375 650.6875 1063.34375 564.234375 L 1063.34375 535.863281 L 943.617188 535.863281 L 943.617188 564.234375 C 943.617188 617.648438 921.964844 666.019531 886.964844 701.023438 C 881.816406 706.167969 876.371094 711.03125 870.667969 715.578125 C 837.632812 741.90625 795.757812 757.660156 750.191406 757.660156 " fill-opacity="1" fill-rule="evenodd"/></g><g transform="matrix(1, 0, 0, 1, 65, 892)"><g clip-path="url(#a1518ee4b4)"><g fill="#10192d" fill-opacity="1"><g transform="translate(1.481046, 284.095033)"><g><path d="M 64.796875 0 L 64.796875 -137.921875 L 7.53125 -137.921875 L 7.53125 -188.203125 L 176.109375 -188.203125 L 176.109375 -137.921875 L 118.828125 -137.921875 L 118.828125 0 Z M 64.796875 0 "/></g></g></g><g fill="#10192d" fill-opacity="1"><g transform="translate(185.076345, 284.095033)"><g><path d="M 1.34375 0 L 74.46875 -188.203125 L 128.25 -188.203125 L 201.375 0 L 143.578125 0 L 133.359375 -26.609375 L 69.09375 -26.609375 L 58.875 0 Z M 80.390625 -66.40625 L 122.328125 -66.40625 L 101.359375 -124.75 Z M 80.390625 -66.40625 "/></g></g></g><g fill="#10192d" fill-opacity="1"><g transform="translate(387.757006, 284.095033)"><g><path d="M 19.890625 0 L 19.890625 -188.203125 L 74.203125 -188.203125 L 74.203125 -50.28125 L 151.09375 -50.28125 L 151.09375 0 Z M 19.890625 0 "/></g></g></g><g fill="#10192d" fill-opacity="1"><g transform="translate(545.546815, 284.095033)"><g><path d="M 19.890625 0 L 19.890625 -188.203125 L 74.203125 -188.203125 L 74.203125 -120.71875 L 83.34375 -120.71875 C 89.800781 -120.71875 94.957031 -121.300781 98.8125 -122.46875 C 102.664062 -123.632812 105.800781 -125.691406 108.21875 -128.640625 C 110.632812 -131.597656 112.738281 -135.769531 114.53125 -141.15625 L 131.46875 -188.203125 L 190.359375 -188.203125 L 162.390625 -118.03125 C 158.085938 -107.269531 153.066406 -98.394531 147.328125 -91.40625 L 196.8125 0 L 133.890625 0 L 97.859375 -71.25 L 74.203125 -71.25 L 74.203125 0 Z M 19.890625 0 "/></g></g></g><g fill="#10192d" fill-opacity="1"><g transform="translate(748.765056, 284.095033)"><g><path d="M 111.578125 4.03125 C 96.523438 4.03125 82.769531 1.65625 70.3125 -3.09375 C 57.851562 -7.84375 47.050781 -14.609375 37.90625 -23.390625 C 28.769531 -32.171875 21.691406 -42.566406 16.671875 -54.578125 C 11.648438 -66.585938 9.140625 -79.757812 9.140625 -94.09375 C 9.140625 -108.4375 11.648438 -121.613281 16.671875 -133.625 C 21.691406 -145.632812 28.769531 -156.03125 37.90625 -164.8125 C 47.050781 -173.59375 57.851562 -180.359375 70.3125 -185.109375 C 82.769531 -189.859375 96.523438 -192.234375 111.578125 -192.234375 C 126.628906 -192.234375 140.382812 -189.859375 152.84375 -185.109375 C 165.300781 -180.359375 176.097656 -173.59375 185.234375 -164.8125 C 194.378906 -156.03125 201.460938 -145.632812 206.484375 -133.625 C 211.503906 -121.613281 214.015625 -108.4375 214.015625 -94.09375 C 214.015625 -79.757812 211.503906 -66.585938 206.484375 -54.578125 C 201.460938 -42.566406 194.378906 -32.171875 185.234375 -23.390625 C 176.097656 -14.609375 165.300781 -7.84375 152.84375 -3.09375 C 140.382812 1.65625 126.628906 4.03125 111.578125 4.03125 Z M 64.25 -94.09375 C 64.25 -84.78125 66.265625 -76.492188 70.296875 -69.234375 C 74.335938 -61.972656 79.941406 -56.328125 87.109375 -52.296875 C 94.273438 -48.265625 102.429688 -46.25 111.578125 -46.25 C 120.898438 -46.25 129.097656 -48.265625 136.171875 -52.296875 C 143.253906 -56.328125 148.8125 -61.972656 152.84375 -69.234375 C 156.875 -76.492188 158.890625 -84.78125 158.890625 -94.09375 C 158.890625 -103.59375 156.875 -111.925781 152.84375 -119.09375 C 148.8125 -126.269531 143.253906 -131.875 136.171875 -135.90625 C 129.097656 -139.9375 120.898438 -141.953125 111.578125 -141.953125 C 102.429688 -141.953125 94.273438 -139.9375 87.109375 -135.90625 C 79.941406 -131.875 74.335938 -126.269531 70.296875 -119.09375 C 66.265625 -111.925781 64.25 -103.59375 64.25 -94.09375 Z M 64.25 -94.09375 "/></g></g></g><g fill="#10192d" fill-opacity="1"><g transform="translate(972.143818, 284.095033)"><g><path d="M 19.890625 0 L 19.890625 -188.203125 L 105.65625 -188.203125 C 120.894531 -188.203125 134.023438 -185.46875 145.046875 -180 C 156.066406 -174.53125 164.578125 -166.773438 170.578125 -156.734375 C 176.585938 -146.703125 179.59375 -134.695312 179.59375 -120.71875 C 179.59375 -107.632812 176.90625 -96.207031 171.53125 -86.4375 C 166.15625 -76.664062 158.445312 -69.003906 148.40625 -63.453125 L 183.09375 0 L 121.53125 0 L 94.640625 -53.5 L 74.203125 -53.5 L 74.203125 0 Z M 73.125 -96.796875 L 98.40625 -96.796875 C 107.007812 -96.796875 113.59375 -98.851562 118.15625 -102.96875 C 122.726562 -107.09375 125.015625 -112.921875 125.015625 -120.453125 C 125.015625 -127.972656 122.726562 -133.75 118.15625 -137.78125 C 113.59375 -141.820312 107.007812 -143.84375 98.40625 -143.84375 L 73.125 -143.84375 Z M 73.125 -96.796875 "/></g></g></g><g fill="#10192d" fill-opacity="1"><g transform="translate(1165.684999, 284.095033)"><g><path d="M 1.34375 0 L 74.46875 -188.203125 L 128.25 -188.203125 L 201.375 0 L 143.578125 0 L 133.359375 -26.609375 L 69.09375 -26.609375 L 58.875 0 Z M 80.390625 -66.40625 L 122.328125 -66.40625 L 101.359375 -124.75 Z M 80.390625 -66.40625 "/></g></g></g></g></g></svg>