<svg xmlns="http://www.w3.org/2000/svg" xmlns:xlink="http://www.w3.org/1999/xlink" width="2000" zoomAndPan="magnify" viewBox="0 0 1500 1499.999933" height="2000" preserveAspectRatio="xMidYMid meet" version="1.0"><defs><g/><clipPath id="ae6e4e537c"><path d="M 437.035156 251 L 997 251 L 997 811 L 437.035156 811 Z M 437.035156 251 " clip-rule="nonzero"/></clipPath><clipPath id="3958fa7cc1"><path d="M 556 535 L 1063.285156 535 L 1063.285156 877.570312 L 556 877.570312 Z M 556 535 " clip-rule="nonzero"/></clipPath><clipPath id="c2fba0e514"><rect x="0" width="1378" y="0" height="389"/></clipPath></defs><g clip-path="url(#ae6e4e537c)"><path fill="#f0ebe3" d="M 556.703125 564.054688 C 556.703125 522.535156 569.792969 484.070312 592.078125 452.5625 C 598.449219 443.566406 605.558594 435.125 613.324219 427.355469 C 648.308594 392.371094 696.640625 370.730469 750.042969 370.730469 L 996.179688 370.730469 C 988.457031 360.910156 980.164062 351.566406 971.347656 342.75 C 914.695312 286.109375 836.445312 251.066406 750.027344 251.066406 C 663.621094 251.066406 585.375 286.109375 528.71875 342.75 C 522.210938 349.257812 515.972656 356.066406 510.066406 363.128906 C 487.707031 389.804688 469.710938 420.246094 457.191406 453.386719 C 444.160156 487.789062 437.035156 525.097656 437.035156 564.054688 C 437.035156 603.015625 444.160156 640.324219 457.175781 674.738281 C 469.710938 707.878906 487.707031 738.320312 510.050781 765 C 515.972656 772.0625 522.195312 778.855469 528.703125 785.378906 C 537.523438 794.195312 546.847656 802.472656 556.65625 810.195312 L 556.65625 774.894531 L 556.640625 765 Z M 556.703125 564.054688 " fill-opacity="1" fill-rule="evenodd"/></g><path fill="#db2076" d="M 683.011719 565.511719 C 683.011719 581.945312 669.679688 595.277344 653.242188 595.277344 C 636.808594 595.277344 623.476562 581.945312 623.476562 565.511719 C 623.476562 549.0625 636.808594 535.746094 653.242188 535.746094 C 669.695312 535.746094 683.011719 549.074219 683.011719 565.511719 " fill-opacity="1" fill-rule="evenodd"/><path fill="#33a3e6" d="M 778.503906 565.511719 C 778.503906 581.945312 765.171875 595.277344 748.738281 595.277344 C 732.300781 595.277344 718.96875 581.945312 718.96875 565.511719 C 718.96875 549.0625 732.300781 535.746094 748.738281 535.746094 C 765.171875 535.746094 778.503906 549.074219 778.503906 565.511719 " fill-opacity="1" fill-rule="evenodd"/><path fill="#0f964b" d="M 873.980469 565.511719 C 873.980469 581.945312 860.648438 595.277344 844.214844 595.277344 C 827.777344 595.277344 814.449219 581.945312 814.449219 565.511719 C 814.449219 549.0625 827.777344 535.746094 844.214844 535.746094 C 860.648438 535.746094 873.980469 549.074219 873.980469 565.511719 " fill-opacity="1" fill-rule="evenodd"/><g clip-path="url(#3958fa7cc1)"><path fill="#f8af34" d="M 750.027344 757.394531 C 723.992188 757.394531 699.144531 752.253906 676.472656 742.925781 L 556.671875 774.894531 L 556.671875 810.195312 C 609.90625 852.078125 677.058594 877.0625 750.027344 877.0625 C 836.445312 877.0625 914.695312 842.03125 971.332031 785.378906 C 1027.972656 728.722656 1063.015625 650.476562 1063.015625 564.070312 L 1063.015625 535.714844 L 943.351562 535.714844 L 943.351562 564.070312 C 943.351562 617.457031 921.710938 665.800781 886.726562 700.789062 C 881.582031 705.929688 876.140625 710.789062 870.441406 715.332031 C 837.421875 741.652344 795.570312 757.394531 750.027344 757.394531 " fill-opacity="1" fill-rule="evenodd"/></g><g transform="matrix(1, 0, 0, 1, 65, 892)"><g clip-path="url(#c2fba0e514)"><g fill="#f0ebe3" fill-opacity="1"><g transform="translate(1.481046, 284.095033)"><g><path d="M 64.796875 0 L 64.796875 -137.921875 L 7.53125 -137.921875 L 7.53125 -188.203125 L 176.109375 -188.203125 L 176.109375 -137.921875 L 118.828125 -137.921875 L 118.828125 0 Z M 64.796875 0 "/></g></g></g><g fill="#f0ebe3" fill-opacity="1"><g transform="translate(185.076345, 284.095033)"><g><path d="M 1.34375 0 L 74.46875 -188.203125 L 128.25 -188.203125 L 201.375 0 L 143.578125 0 L 133.359375 -26.609375 L 69.09375 -26.609375 L 58.875 0 Z M 80.390625 -66.40625 L 122.328125 -66.40625 L 101.359375 -124.75 Z M 80.390625 -66.40625 "/></g></g></g><g fill="#f0ebe3" fill-opacity="1"><g transform="translate(387.757006, 284.095033)"><g><path d="M 19.890625 0 L 19.890625 -188.203125 L 74.203125 -188.203125 L 74.203125 -50.28125 L 151.09375 -50.28125 L 151.09375 0 Z M 19.890625 0 "/></g></g></g><g fill="#f0ebe3" fill-opacity="1"><g transform="translate(545.546815, 284.095033)"><g><path d="M 19.890625 0 L 19.890625 -188.203125 L 74.203125 -188.203125 L 74.203125 -120.71875 L 83.34375 -120.71875 C 89.800781 -120.71875 94.957031 -121.300781 98.8125 -122.46875 C 102.664062 -123.632812 105.800781 -125.691406 108.21875 -128.640625 C 110.632812 -131.597656 112.738281 -135.769531 114.53125 -141.15625 L 131.46875 -188.203125 L 190.359375 -188.203125 L 162.390625 -118.03125 C 158.085938 -107.269531 153.066406 -98.394531 147.328125 -91.40625 L 196.8125 0 L 133.890625 0 L 97.859375 -71.25 L 74.203125 -71.25 L 74.203125 0 Z M 19.890625 0 "/></g></g></g><g fill="#f0ebe3" fill-opacity="1"><g transform="translate(748.765056, 284.095033)"><g><path d="M 111.578125 4.03125 C 96.523438 4.03125 82.769531 1.65625 70.3125 -3.09375 C 57.851562 -7.84375 47.050781 -14.609375 37.90625 -23.390625 C 28.769531 -32.171875 21.691406 -42.566406 16.671875 -54.578125 C 11.648438 -66.585938 9.140625 -79.757812 9.140625 -94.09375 C 9.140625 -108.4375 11.648438 -121.613281 16.671875 -133.625 C 21.691406 -145.632812 28.769531 -156.03125 37.90625 -164.8125 C 47.050781 -173.59375 57.851562 -180.359375 70.3125 -185.109375 C 82.769531 -189.859375 96.523438 -192.234375 111.578125 -192.234375 C 126.628906 -192.234375 140.382812 -189.859375 152.84375 -185.109375 C 165.300781 -180.359375 176.097656 -173.59375 185.234375 -164.8125 C 194.378906 -156.03125 201.460938 -145.632812 206.484375 -133.625 C 211.503906 -121.613281 214.015625 -108.4375 214.015625 -94.09375 C 214.015625 -79.757812 211.503906 -66.585938 206.484375 -54.578125 C 201.460938 -42.566406 194.378906 -32.171875 185.234375 -23.390625 C 176.097656 -14.609375 165.300781 -7.84375 152.84375 -3.09375 C 140.382812 1.65625 126.628906 4.03125 111.578125 4.03125 Z M 64.25 -94.09375 C 64.25 -84.78125 66.265625 -76.492188 70.296875 -69.234375 C 74.335938 -61.972656 79.941406 -56.328125 87.109375 -52.296875 C 94.273438 -48.265625 102.429688 -46.25 111.578125 -46.25 C 120.898438 -46.25 129.097656 -48.265625 136.171875 -52.296875 C 143.253906 -56.328125 148.8125 -61.972656 152.84375 -69.234375 C 156.875 -76.492188 158.890625 -84.78125 158.890625 -94.09375 C 158.890625 -103.59375 156.875 -111.925781 152.84375 -119.09375 C 148.8125 -126.269531 143.253906 -131.875 136.171875 -135.90625 C 129.097656 -139.9375 120.898438 -141.953125 111.578125 -141.953125 C 102.429688 -141.953125 94.273438 -139.9375 87.109375 -135.90625 C 79.941406 -131.875 74.335938 -126.269531 70.296875 -119.09375 C 66.265625 -111.925781 64.25 -103.59375 64.25 -94.09375 Z M 64.25 -94.09375 "/></g></g></g><g fill="#f0ebe3" fill-opacity="1"><g transform="translate(972.143818, 284.095033)"><g><path d="M 19.890625 0 L 19.890625 -188.203125 L 105.65625 -188.203125 C 120.894531 -188.203125 134.023438 -185.46875 145.046875 -180 C 156.066406 -174.53125 164.578125 -166.773438 170.578125 -156.734375 C 176.585938 -146.703125 179.59375 -134.695312 179.59375 -120.71875 C 179.59375 -107.632812 176.90625 -96.207031 171.53125 -86.4375 C 166.15625 -76.664062 158.445312 -69.003906 148.40625 -63.453125 L 183.09375 0 L 121.53125 0 L 94.640625 -53.5 L 74.203125 -53.5 L 74.203125 0 Z M 73.125 -96.796875 L 98.40625 -96.796875 C 107.007812 -96.796875 113.59375 -98.851562 118.15625 -102.96875 C 122.726562 -107.09375 125.015625 -112.921875 125.015625 -120.453125 C 125.015625 -127.972656 122.726562 -133.75 118.15625 -137.78125 C 113.59375 -141.820312 107.007812 -143.84375 98.40625 -143.84375 L 73.125 -143.84375 Z M 73.125 -96.796875 "/></g></g></g><g fill="#f0ebe3" fill-opacity="1"><g transform="translate(1165.684999, 284.095033)"><g><path d="M 1.34375 0 L 74.46875 -188.203125 L 128.25 -188.203125 L 201.375 0 L 143.578125 0 L 133.359375 -26.609375 L 69.09375 -26.609375 L 58.875 0 Z M 80.390625 -66.40625 L 122.328125 -66.40625 L 101.359375 -124.75 Z M 80.390625 -66.40625 "/></g></g></g></g></g></svg>